<?xml version="1.0" standalone="no"?>
<!DOCTYPE svg PUBLIC "-//W3C//DTD SVG 20010904//EN"
 "http://www.w3.org/TR/2001/REC-SVG-20010904/DTD/svg10.dtd">
<svg version="1.0" xmlns="http://www.w3.org/2000/svg"
 width="500.000000pt" height="500.000000pt" viewBox="0 0 500.000000 500.000000"
 preserveAspectRatio="xMidYMid meet">
<metadata>
Created by potrace 1.11, written by Peter Selinger 2001-2013
</metadata>
<g transform="translate(0.000000,500.000000) scale(0.100000,-0.100000)"
fill="#000000" stroke="none">
<path d="M0 2500 c0 -2374 1 -2500 18 -2500 15 0 17 12 18 113 1 98 4 117 24
152 57 98 61 122 45 250 -5 37 2 84 24 184 19 81 31 161 31 205 0 58 5 79 26
116 14 25 37 73 51 107 40 101 78 94 117 -20 13 -38 16 -68 11 -112 -6 -62 8
-116 38 -147 24 -25 57 -76 57 -90 0 -7 -20 -65 -44 -128 -53 -137 -65 -216
-59 -370 5 -148 6 -152 48 -196 20 -21 33 -44 31 -51 -4 -10 10 -13 62 -12 37
0 61 3 54 6 -32 13 5 133 42 133 7 0 21 9 31 20 23 25 96 28 115 4 8 -8 22
-20 32 -25 15 -8 20 -5 28 16 15 40 3 75 -26 75 -36 0 -32 40 6 65 43 28 46
54 15 117 -15 29 -38 91 -51 138 -29 104 -60 182 -92 234 -20 32 -25 57 -29
136 -4 70 -2 103 8 121 7 13 14 30 15 37 1 7 15 28 31 47 30 37 32 38 128 14
56 -13 91 -33 118 -67 23 -27 79 -52 119 -52 16 0 47 -9 68 -20 22 -11 58 -29
79 -40 22 -11 43 -24 46 -30 3 -5 16 -10 28 -10 12 0 32 -8 44 -18 23 -17 26
-38 19 -112 -3 -32 -5 -34 -42 -37 -68 -4 -81 -11 -88 -44 -9 -47 -7 -139 3
-139 5 0 14 -15 20 -32 7 -18 25 -46 41 -63 34 -35 39 -75 22 -160 -7 -32 -7
-86 -2 -150 5 -55 9 -115 10 -132 l0 -33 683 0 682 0 2 143 c1 79 5 150 8 158
3 8 3 42 2 77 -3 36 1 72 8 85 7 13 15 36 19 51 8 34 10 155 2 163 -3 4 -18 1
-32 -6 -15 -6 -29 -9 -33 -5 -3 4 -1 9 5 11 6 2 19 9 28 16 13 10 -11 12 -121
14 -122 2 -197 8 -361 29 l-43 5 17 -33 c9 -18 20 -35 23 -38 4 -3 14 -17 24
-33 14 -21 15 -32 6 -48 -8 -15 -8 -38 1 -86 13 -75 7 -96 -10 -32 -21 81 -27
94 -43 91 -18 -3 -32 46 -22 78 12 37 -45 180 -91 231 -73 80 -70 96 4 24 39
-38 82 -75 94 -82 l23 -12 -23 -1 c-13 0 -20 -4 -17 -10 8 -13 65 -13 65 0 0
6 5 10 10 10 6 0 10 -7 10 -15 0 -11 11 -15 43 -15 32 0 44 4 44 15 0 8 -6 15
-14 15 -7 0 -31 11 -53 25 -22 14 -42 25 -44 25 -19 0 -191 124 -236 169 -49
50 -212 278 -400 561 -34 52 -78 114 -97 138 l-34 42 57 0 c60 0 66 16 9 22
-27 3 -30 7 -30 38 0 32 3 35 33 38 40 4 43 22 3 22 -35 0 -45 12 -37 46 5 20
13 24 41 24 19 0 35 5 35 10 0 15 -100 13 -101 -2 -1 -7 0 -39 1 -70 2 -64 -7
-118 -20 -118 -13 0 -80 60 -80 71 0 6 9 19 19 30 11 12 21 29 24 39 7 27 -28
60 -63 60 -20 0 -33 7 -41 23 -7 12 -82 125 -167 251 -149 220 -155 228 -168
205 -24 -44 -14 -8 51 187 36 107 65 196 65 198 0 3 -12 4 -26 3 -26 -2 -29
-10 -72 -156 -37 -125 -48 -151 -56 -137 -12 20 -126 190 -168 251 -16 22 -93
137 -172 255 -78 118 -162 242 -185 274 -22 33 -41 63 -41 68 0 4 21 -5 48
-21 77 -48 282 -120 282 -100 0 12 -35 29 -62 30 -23 1 -23 1 2 9 30 9 28 9
-90 39 -141 36 -260 108 -260 158 0 9 10 2 26 -17 32 -37 116 -82 162 -86 17
-1 32 1 32 4 0 4 -26 21 -58 37 -31 17 -74 47 -94 68 -93 92 -14 181 229 257
l110 35 7 83 c16 207 89 350 219 431 21 13 36 25 35 27 -7 6 -237 -32 -488
-81 -32 -6 -33 -5 -17 8 12 10 15 17 7 22 -6 4 -19 0 -29 -9 -10 -9 -21 -13
-24 -9 -4 3 -7 -1 -7 -10 0 -21 0 -21 -38 -1 -35 17 -50 34 -31 34 10 0 10 3
1 12 -7 7 -12 15 -12 19 0 4 32 31 70 60 39 30 70 57 70 61 0 5 16 8 35 8 19
0 35 4 35 9 0 5 25 13 56 17 31 3 58 12 61 20 3 9 24 12 71 11 57 -2 67 -5 64
-19 -4 -22 19 -35 29 -16 7 12 21 14 66 11 31 -3 66 -11 78 -18 11 -7 37 -16
58 -19 20 -4 63 -22 95 -41 71 -42 112 -54 112 -31 0 8 13 22 28 30 25 13 34
13 68 1 21 -7 43 -21 49 -32 5 -10 11 -20 12 -22 7 -12 32 26 38 58 7 45 -5
81 -40 113 -14 14 -27 37 -29 53 -4 40 -26 52 -109 60 -99 9 -111 18 -54 43
25 11 59 23 75 27 46 10 57 28 37 59 -10 14 -22 26 -27 26 -6 0 -7 11 -4 24 4
18 -2 32 -24 56 -29 32 -38 50 -22 50 4 0 13 14 20 32 15 41 25 32 12 -12 -9
-32 -7 -37 32 -77 23 -24 38 -43 34 -43 -5 0 -3 -7 4 -15 7 -9 19 -14 26 -11
8 3 11 0 7 -10 -3 -7 -9 -14 -14 -14 -5 0 -9 -4 -9 -9 0 -5 9 -7 20 -4 11 3
20 10 20 15 0 5 5 6 12 2 8 -5 9 -2 4 11 -4 11 0 25 9 35 15 16 14 19 0 34 -9
9 -23 16 -31 16 -8 0 -14 10 -14 24 0 14 -5 28 -11 32 -6 3 -9 19 -7 35 6 37
-13 38 -41 3 -22 -28 -28 -25 -11 6 10 19 -3 19 -615 20 l-625 0 0 -2500z
m1334 2344 c3 -8 2 -12 -4 -9 -6 3 -10 10 -10 16 0 14 7 11 14 -7z m-227 -430
c-3 -3 -12 -4 -19 -1 -8 3 -5 6 6 6 11 1 17 -2 13 -5z m-814 -1571 c-7 -2 -21
-2 -30 0 -10 3 -4 5 12 5 17 0 24 -2 18 -5z m316 -57 c-6 -21 -13 -36 -16 -33
-3 3 0 22 7 42 16 47 23 40 9 -9z m-259 -27 c17 -71 8 -70 -11 1 -9 32 -12 57
-8 55 4 -3 12 -28 19 -56z m-96 -1 c8 -29 13 -54 11 -56 -2 -2 -11 20 -19 49
-18 58 -18 59 -12 59 3 0 11 -23 20 -52z m454 21 c-3 -8 -7 -3 -11 10 -4 17
-3 21 5 13 5 -5 8 -16 6 -23z m-56 -84 c4 -19 2 -23 -7 -15 -6 5 -14 7 -18 4
-3 -3 -3 3 0 15 7 28 20 26 25 -4z m-264 -85 c0 -8 -6 1 -13 20 -7 19 -13 42
-13 50 0 8 6 -1 13 -20 7 -19 13 -42 13 -50z m479 -195 c-24 -70 -29 -73 -41
-20 -5 21 -4 26 3 15 13 -19 25 -6 41 43 7 21 14 37 16 34 2 -2 -7 -34 -19
-72z m-430 23 c-3 -8 -6 -5 -6 6 -1 11 2 17 5 13 3 -3 4 -12 1 -19z m30 -38
c10 0 13 -6 9 -16 -3 -9 -6 -21 -6 -27 0 -21 -17 7 -23 38 -4 17 -4 24 -1 18
3 -7 13 -13 21 -13z m586 -520 c4 0 7 11 7 24 0 14 5 28 10 31 11 7 14 -87 3
-98 -6 -7 -115 106 -122 127 -2 6 19 -10 46 -36 27 -27 52 -48 56 -48z m-281
55 c-2 -14 -9 -25 -14 -25 -5 0 -7 3 -5 8 2 4 7 15 10 25 9 25 15 21 9 -8z
m-322 -115 c11 -15 20 -38 20 -49 0 -17 -6 -21 -32 -20 -31 1 -31 2 -7 8 l26
6 -38 80 c-21 44 -38 87 -38 95 -1 8 10 -9 24 -38 14 -30 34 -66 45 -82z m100
121 c0 -5 -5 -11 -11 -13 -14 -5 0 -38 16 -38 7 0 18 -7 25 -15 24 -28 40 -18
40 27 0 64 9 41 13 -37 5 -79 2 -95 -22 -95 -9 0 -22 -5 -28 -11 -5 -5 -32 -8
-59 -6 l-49 3 52 2 c41 2 55 6 63 22 21 39 8 73 -34 95 -41 22 -52 36 -42 60
6 16 36 21 36 6z m145 -128 c6 -1 18 16 27 39 10 23 21 39 24 35 3 -3 -8 -33
-25 -66 -26 -52 -28 -60 -13 -63 9 -2 -5 -4 -33 -4 -27 0 -40 1 -27 3 21 4 22
9 24 101 2 96 2 96 7 28 3 -38 11 -71 16 -73z m214 2 c11 18 12 16 9 -17 -3
-31 0 -38 17 -41 11 -2 -7 -3 -40 -3 -33 0 -45 1 -27 3 24 3 31 8 24 16 -13
16 -72 156 -72 171 0 6 18 -25 38 -69 35 -73 39 -78 51 -60z m429 104 c2 -19
-4 -29 -23 -39 -23 -12 -28 -12 -35 0 -11 18 -13 54 -3 64 4 4 19 6 33 4 18
-2 26 -10 28 -29z m-408 -10 c0 -11 -4 -17 -10 -14 -5 3 -10 15 -10 26 0 11 5
17 10 14 6 -3 10 -15 10 -26z m189 -49 c-2 -44 -6 -80 -11 -80 -4 0 -8 8 -8
19 0 33 13 141 17 141 2 0 3 -36 2 -80z m116 -88 c-12 -12 -13 7 -7 88 l7 85
3 -84 c2 -46 0 -86 -3 -89z m-865 108 c0 -11 -7 -20 -15 -20 -8 0 -15 9 -15
20 0 11 7 20 15 20 8 0 15 -9 15 -20z m438 -3 c2 -10 -3 -17 -12 -17 -18 0
-29 16 -21 31 9 14 29 6 33 -14z m172 4 c0 -5 20 -29 45 -55 25 -27 45 -52 45
-56 0 -5 10 -11 23 -13 22 -4 22 -4 0 -6 -12 0 -33 12 -50 31 -60 67 -73 79
-82 74 -9 -6 -22 29 -14 38 7 6 33 -4 33 -13z m-425 -46 c29 -17 11 -55 -26
-55 -16 0 -29 4 -29 10 0 5 10 9 21 7 34 -3 34 21 1 40 -16 9 -35 25 -41 35
-9 14 -4 13 23 -5 18 -12 41 -27 51 -32z m-264 -2 c-12 -20 -14 -14 -5 12 4 9
9 14 11 11 3 -2 0 -13 -6 -23z m1040 -45 c6 -11 6 -18 0 -18 -5 0 -11 7 -15
15 -3 8 -10 15 -16 15 -5 0 -10 -7 -10 -15 0 -8 -4 -15 -10 -15 -11 0 -14 63
-3 74 7 7 33 -21 54 -56z m-1011 11 c-18 -28 -20 -29 -15 -9 8 27 25 53 32 46
2 -2 -6 -19 -17 -37z m76 16 c9 -13 14 -30 11 -37 -3 -8 -10 -2 -17 15 -7 15
-17 27 -22 27 -4 0 -8 5 -8 10 0 18 19 10 36 -15z m421 17 c15 -9 35 -62 24
-62 -4 0 -13 11 -19 25 -15 33 -47 32 -66 -2 -11 -20 -15 -23 -16 -10 -1 43
43 71 77 49z m153 -38 c0 -13 -4 -24 -10 -24 -5 0 -10 14 -10 31 0 17 4 28 10
24 6 -3 10 -17 10 -31z m-690 12 c0 -3 -4 -8 -10 -11 -5 -3 -10 -1 -10 4 0 6
5 11 10 11 6 0 10 -2 10 -4z m991 -55 c-8 -5 -20 -7 -28 -4 -21 8 -15 13 15
13 20 0 23 -3 13 -9z m117 2 c-10 -2 -26 -2 -35 0 -10 3 -2 5 17 5 19 0 27 -2
18 -5z m-822 -987 c20 -21 17 -43 -12 -93 -21 -36 -28 -42 -40 -32 -11 9 -14
8 -14 -3 0 -8 -9 -23 -20 -33 -21 -19 -21 -19 -14 24 4 24 7 58 8 74 1 24 9
37 35 54 40 27 39 27 57 9z m2044 -106 c8 -5 11 -10 5 -10 -5 0 -17 5 -25 10
-8 5 -10 10 -5 10 6 0 17 -5 25 -10z m-1010 -45 c7 -8 16 -12 21 -9 5 3 9 0 9
-5 0 -6 -4 -11 -10 -11 -16 0 -60 23 -60 32 0 13 27 9 40 -7z m860 -44 c0 -6
-4 -13 -10 -16 -5 -3 -10 1 -10 9 0 9 5 16 10 16 6 0 10 -4 10 -9z m-30 -11
c0 -5 -2 -10 -4 -10 -3 0 -8 5 -11 10 -3 6 -1 10 4 10 6 0 11 -4 11 -10z m180
3 c0 -5 -3 -19 -7 -32 -6 -23 -7 -23 -14 -5 -7 18 -8 18 -8 -3 -1 -12 4 -25 9
-28 17 -11 11 -35 -9 -35 -12 0 -20 9 -23 25 -4 16 -1 22 6 18 6 -4 5 1 -2 10
-20 24 -6 57 24 57 13 0 24 -3 24 -7z m-334 -86 c1 -23 5 -73 9 -112 5 -51 4
-67 -4 -60 -6 6 -14 40 -17 75 -4 36 -11 73 -15 82 -9 17 9 73 20 63 3 -3 6
-25 7 -48z m191 -1 c-6 -17 -31 -13 -35 6 -2 12 2 15 18 11 11 -3 19 -11 17
-17z m103 -63 c0 -46 -12 -103 -21 -103 -5 0 -9 29 -9 65 0 51 3 65 15 65 10
0 15 -10 15 -27z"/>
<path d="M1286 1924 c-8 -20 1 -34 20 -34 18 0 18 24 0 39 -11 9 -15 8 -20 -5z"/>
<path d="M1350 4990 c0 -5 -6 -7 -12 -5 -9 4 -14 -6 -15 -27 l-2 -33 19 25
c15 19 20 21 20 9 0 -9 7 -19 15 -23 19 -7 19 4 0 30 -8 12 -11 24 -8 28 3 3
1 6 -5 6 -7 0 -12 -4 -12 -10z"/>
<path d="M1517 4985 c-4 -8 -2 -17 3 -20 6 -4 10 0 10 9 0 8 6 17 13 19 7 4 6
6 -4 6 -9 1 -19 -6 -22 -14z"/>
<path d="M1600 4973 c0 -16 -3 -39 -7 -52 -4 -18 -3 -22 8 -19 8 3 13 11 11
18 -1 7 4 23 13 36 20 31 19 44 -5 44 -15 0 -20 -7 -20 -27z"/>
<path d="M1638 4917 c-26 -56 -39 -100 -41 -140 -2 -32 -9 -63 -15 -69 -7 -7
-12 -21 -12 -33 0 -11 -6 -29 -14 -40 -8 -11 -19 -40 -26 -65 -7 -25 -25 -55
-39 -67 -24 -21 -25 -23 -6 -23 12 0 26 5 33 12 9 9 13 7 18 -6 6 -15 7 -15
19 0 15 21 65 12 65 -11 0 -8 5 -15 10 -15 6 0 10 7 10 15 0 16 21 20 34 8 4
-5 11 -8 14 -8 13 -1 82 -69 82 -81 0 -6 -7 -17 -15 -24 -9 -7 -14 -22 -13
-34 2 -16 -1 -20 -17 -16 -39 9 -139 -1 -154 -15 -8 -9 9 -34 21 -30 15 6 90
-35 95 -51 2 -7 -13 -4 -35 7 -21 11 -69 22 -105 26 -37 3 -75 11 -84 18 -16
12 -16 14 1 39 10 17 15 35 11 49 -5 17 -2 16 14 -8 17 -25 21 -27 27 -12 3
10 0 25 -7 34 -8 8 -12 27 -11 41 3 15 0 22 -7 18 -6 -4 -11 -14 -11 -22 0 -8
-4 -14 -9 -14 -5 0 -11 -15 -15 -32 -5 -23 -9 -29 -15 -20 -5 9 -10 0 -15 -28
-6 -41 4 -70 26 -70 6 0 49 -26 96 -57 48 -32 107 -70 131 -85 45 -27 57 -44
132 -195 25 -51 32 -82 39 -163 14 -151 -10 -219 -114 -334 -39 -43 -40 -45
-28 -63 12 -20 238 -7 582 34 82 9 198 14 295 13 88 -1 219 -2 290 -1 289 3
336 1 468 -14 173 -19 187 -19 187 0 0 18 16 20 27 2 12 -19 74 -34 208 -48
120 -12 230 -42 220 -60 -7 -11 81 -3 240 21 65 11 121 18 122 16 2 -2 -32
-13 -74 -25 -43 -13 -92 -29 -110 -37 -17 -8 -46 -14 -65 -14 -18 0 -80 -9
-138 -20 -251 -46 -648 -83 -1100 -101 -157 -6 -287 -13 -289 -15 -9 -8 420
-4 574 6 338 21 827 78 955 110 19 4 64 11 100 15 113 11 232 54 238 87 5 25
-17 26 -123 7 -55 -10 -113 -18 -130 -18 -35 1 -30 3 50 19 127 27 218 52 241
66 13 9 29 14 36 11 16 -5 90 26 128 53 20 14 27 26 23 40 -5 17 -8 18 -21 8
-13 -11 -13 -8 1 19 23 44 21 64 -9 109 l-26 39 30 -29 c35 -33 46 -65 33 -99
-12 -30 3 -60 19 -37 8 13 10 13 10 -1 0 -30 -40 -67 -103 -97 -34 -17 -68
-40 -75 -51 -16 -28 -7 -26 56 8 28 16 52 28 52 25 0 -2 -46 -70 -103 -151
-147 -210 -267 -391 -267 -401 0 -5 -15 -16 -32 -23 -79 -32 -158 -144 -158
-223 0 -12 -21 -49 -46 -82 -53 -68 -64 -88 -76 -129 -4 -16 -6 79 -3 211 l4
242 -25 0 -24 0 0 -210 c1 -116 -2 -213 -5 -217 -4 -3 -23 12 -43 34 -20 22
-92 101 -161 175 -69 74 -147 157 -173 185 -25 27 -49 48 -51 45 -3 -3 -7
-137 -9 -297 l-3 -293 26 0 25 0 -4 220 c-3 150 -1 220 6 220 6 0 25 -17 44
-38 18 -21 97 -108 175 -193 78 -85 152 -167 164 -184 23 -30 23 -30 1 -11
-12 11 -24 17 -26 15 -11 -12 -176 -251 -201 -291 -17 -26 -54 -79 -82 -118
-29 -39 -53 -78 -53 -86 0 -17 -20 -19 -21 -1 -1 6 -2 48 -3 91 -1 53 -5 81
-13 83 -7 3 -13 1 -13 -4 -1 -4 -2 -52 -3 -106 -2 -85 0 -97 15 -97 15 0 14
-3 -5 -24 -12 -13 -55 -72 -96 -132 -127 -187 -363 -516 -414 -579 -44 -55
-73 -79 -177 -150 -57 -39 -86 -65 -73 -65 7 0 10 -7 7 -15 -5 -11 1 -15 20
-15 27 0 36 15 14 23 -8 3 -6 8 7 12 11 5 28 16 38 27 26 26 45 22 19 -4 -30
-33 -130 -339 -141 -434 -6 -44 -13 -152 -17 -242 l-6 -162 1166 0 1166 0 0
2500 0 2500 -1662 0 -1663 -1 -37 -82z m196 -565 c14 -21 26 -43 26 -50 0 -6
6 -9 13 -7 6 3 21 -8 32 -24 22 -33 45 -46 102 -57 41 -8 113 -48 113 -64 0
-5 -20 4 -44 20 -46 32 -75 38 -77 18 0 -10 -2 -10 -6 0 -2 6 -13 12 -24 12
-10 0 -19 5 -19 11 0 6 -7 8 -16 5 -8 -3 -13 -2 -10 3 3 5 0 14 -8 20 -10 9
-16 8 -26 -4 -15 -18 -15 -19 33 -38 20 -9 37 -22 37 -30 0 -8 12 -19 26 -26
14 -6 24 -16 22 -22 -4 -12 44 -69 59 -69 4 0 18 -18 30 -40 21 -39 21 -40 2
-40 -10 0 -18 6 -17 13 2 6 -3 11 -11 9 -8 -2 -11 3 -8 13 4 8 1 15 -6 15 -7
0 -25 16 -40 36 -16 19 -35 33 -41 31 -16 -6 -18 -5 -96 76 -62 65 -64 68 -36
65 17 -2 31 2 33 10 5 14 -82 18 -91 3 -10 -15 -56 -20 -56 -5 0 17 46 48 59
40 5 -4 12 -2 16 4 3 5 -3 10 -14 10 -23 0 -43 51 -23 58 7 2 12 12 12 23 0
31 25 22 54 -19z m572 -28 c25 -12 34 -23 34 -40 0 -22 -4 -24 -42 -23 -55 0
-162 41 -166 62 -3 15 7 17 68 17 46 0 85 -6 106 -16z m-656 -38 c0 -3 -4 -8
-10 -11 -5 -3 -10 -1 -10 4 0 6 5 11 10 11 6 0 10 -2 10 -4z m-44 -26 c9 0 12
-4 9 -10 -8 -12 -16 -12 -34 -1 -8 5 -10 14 -5 22 6 10 9 10 12 1 2 -7 10 -12
18 -12z m958 -55 c20 -8 36 -20 36 -25 0 -5 14 -17 32 -26 50 -26 221 -13 288
22 40 21 60 25 96 21 67 -7 86 -29 82 -96 -2 -44 -6 -55 -18 -52 -79 20 -92
20 -147 6 -32 -8 -77 -16 -100 -18 -23 -1 -45 -5 -48 -9 -16 -16 -111 37 -119
66 -4 14 -11 17 -32 13 -16 -3 -39 0 -53 5 -15 6 -50 10 -79 9 -49 -1 -112 20
-112 37 1 21 32 44 64 46 20 2 39 6 43 10 10 10 28 7 67 -9z m-509 -95 c8 -16
15 -33 15 -37 -1 -13 -40 41 -40 55 0 20 9 14 25 -18z m-85 -15 c7 -9 10 -18
7 -21 -9 -9 -48 16 -42 27 9 13 21 11 35 -6z m-52 -55 c18 -22 29 -40 24 -40
-9 0 -72 65 -72 75 0 14 18 1 48 -35z m182 -12 c0 -6 -7 -5 -15 2 -8 7 -15 17
-15 22 0 6 7 5 15 -2 8 -7 15 -17 15 -22z m704 -99 c-3 -5 -10 -7 -15 -3 -5 3
-7 10 -3 15 3 5 10 7 15 3 5 -3 7 -10 3 -15z m475 -9 c119 -11 131 -14 131
-32 0 -8 -33 -8 -112 -3 -62 5 -131 9 -153 9 -26 1 -39 5 -37 14 1 6 -5 12
-14 12 -8 0 -12 5 -8 11 4 7 21 9 43 5 20 -3 87 -10 150 -16z m777 -83 c8 -12
11 -55 4 -66 -6 -11 -16 -12 -42 -5 -30 9 -33 14 -34 48 l-1 38 36 -7 c20 -4
36 -8 37 -8z m435 -153 c6 -7 -18 1 -54 18 -36 18 -64 35 -61 39 5 9 99 -38
115 -57z m-111 11 c0 -8 -4 -15 -10 -15 -5 0 -10 7 -10 15 0 8 5 15 10 15 6 0
10 -7 10 -15z m58 -19 c39 -24 101 -96 83 -96 -5 0 -11 4 -13 8 -6 14 -62 49
-90 56 -21 5 -28 12 -28 31 0 31 1 31 48 1z m72 -115 c0 -5 -10 -11 -22 -14
-22 -6 -22 -6 -4 8 23 17 26 18 26 6z m-30 -45 c0 -3 -4 -8 -10 -11 -5 -3 -10
-1 -10 4 0 6 5 11 10 11 6 0 10 -2 10 -4z m-100 -21 c0 -8 -4 -15 -10 -15 -5
0 -7 7 -4 15 4 8 8 15 10 15 2 0 4 -7 4 -15z m10 -45 c0 -5 -9 -15 -20 -22
-11 -7 -20 -18 -20 -25 0 -7 -7 -13 -15 -13 -18 0 -19 21 -2 42 18 24 57 36
57 18z m70 6 c0 -3 -4 -8 -10 -11 -5 -3 -10 -1 -10 4 0 6 5 11 10 11 6 0 10
-2 10 -4z m-132 -603 c-21 -2 -55 -2 -75 0 -21 2 -4 4 37 4 41 0 58 -2 38 -4z
m-230 -150 c-27 -47 -28 -49 -28 -37 0 11 38 74 45 74 2 0 -5 -17 -17 -37z
m-31 -85 c-3 -7 -5 -2 -5 12 0 14 2 19 5 13 2 -7 2 -19 0 -25z m440 -10 c-3
-8 -6 -5 -6 6 -1 11 2 17 5 13 3 -3 4 -12 1 -19z m-450 -70 c-3 -7 -5 -2 -5
12 0 14 2 19 5 13 2 -7 2 -19 0 -25z m460 0 c-3 -8 -6 -5 -6 6 -1 11 2 17 5
13 3 -3 4 -12 1 -19z m-549 -49 c-3 -20 -5 -19 -9 9 -3 20 -2 29 4 23 5 -5 7
-19 5 -32z m89 9 c-3 -8 -6 -5 -6 6 -1 11 2 17 5 13 3 -3 4 -12 1 -19z m447
-44 c-17 -68 -54 -119 -110 -152 -34 -20 -50 -22 -121 -19 -70 3 -86 7 -118
31 -43 33 -82 90 -89 131 l-6 30 11 -30 c22 -57 64 -109 109 -133 62 -33 165
-28 226 11 41 26 94 109 94 148 0 20 11 51 16 46 2 -2 -3 -30 -12 -63z m-504
-69 c0 -5 -5 -3 -10 5 -5 8 -10 20 -10 25 0 6 5 3 10 -5 5 -8 10 -19 10 -25z
m559 -24 c-19 -27 -48 -58 -65 -70 -46 -32 -53 -25 -7 8 22 16 53 49 69 74 16
25 31 43 33 41 2 -2 -11 -26 -30 -53z m-712 -73 c-2 -13 -4 -3 -4 22 0 25 2
35 4 23 2 -13 2 -33 0 -45z m201 27 c-3 -3 -9 2 -12 12 -6 14 -5 15 5 6 7 -7
10 -15 7 -18z m145 -61 c27 -4 43 -10 37 -14 -20 -13 -149 34 -165 60 -3 5 14
-2 37 -15 24 -14 65 -28 91 -31z m180 -11 c-7 -2 -19 -2 -25 0 -7 3 -2 5 12 5
14 0 19 -2 13 -5z m168 -307 c-10 -11 -10 -20 -1 -37 10 -17 9 -20 -2 -17 -25
9 -22 68 3 68 8 0 8 -4 0 -14z m-968 -20 c-10 -13 -20 -22 -22 -20 -4 4 29 44
36 44 2 0 -4 -11 -14 -24z m165 -1 c-3 -3 -9 2 -12 12 -6 14 -5 15 5 6 7 -7
10 -15 7 -18z m42 -37 c-1 -52 -3 -60 -12 -43 -11 19 -11 19 -19 0 -6 -16 -8
-13 -8 13 -1 32 12 43 23 20 4 -9 5 -8 5 2 -2 32 1 70 6 70 3 0 5 -28 5 -62z
m37 15 c-3 -10 -5 -2 -5 17 0 19 2 27 5 18 2 -10 2 -26 0 -35z m200 25 c-3 -8
-6 -5 -6 6 -1 11 2 17 5 13 3 -3 4 -12 1 -19z m74 0 c11 -21 11 -22 -4 -9 -10
7 -17 17 -17 22 0 15 9 10 21 -13z m116 0 c-3 -8 -6 -5 -6 6 -1 11 2 17 5 13
3 -3 4 -12 1 -19z m99 0 c-25 -35 -20 -85 10 -113 20 -18 23 -25 11 -25 -42 0
-64 104 -30 142 22 25 27 23 9 -4z m-612 -4 c9 -24 2 -26 -12 -4 -7 11 -8 20
-3 20 5 0 12 -7 15 -16z m273 -6 c-3 -8 -6 -5 -6 6 -1 11 2 17 5 13 3 -3 4
-12 1 -19z m277 -116 c-7 -10 -21 71 -16 90 5 17 8 8 13 -32 3 -30 5 -57 3
-58z m-136 44 c29 -30 52 -59 52 -65 0 -6 5 -11 12 -11 6 0 8 -3 4 -7 -4 -5
-13 -1 -19 8 -34 46 -80 91 -95 93 -17 3 -31 36 -15 36 5 0 33 -24 61 -54z
m22 43 c0 -6 9 -9 20 -6 16 4 20 0 20 -19 0 -32 -12 -30 -38 6 -13 17 -18 30
-12 30 5 0 10 -5 10 -11z m-425 -38 c-3 -16 -13 -35 -21 -42 -12 -10 -12 -7 1
17 8 16 15 38 15 48 0 11 3 17 6 13 3 -3 3 -19 -1 -36z m509 17 c-1 -13 -3
-39 -4 -58 -1 -28 -3 -31 -9 -15 -9 23 -3 95 8 95 4 0 7 -10 5 -22z m336 -3
c0 -3 -6 -14 -12 -26 -11 -17 -10 -22 7 -35 19 -15 19 -15 -5 -12 -21 3 -24 7
-21 33 1 17 5 33 8 38 5 8 23 10 23 2z m-623 -37 c-3 -7 -5 -2 -5 12 0 14 2
19 5 13 2 -7 2 -19 0 -25z m-83 -37 c-7 -7 -33 33 -34 49 0 8 8 2 19 -15 10
-16 17 -32 15 -34z m608 41 c3 -9 1 -26 -3 -37 -6 -15 -8 -11 -8 18 -1 40 4
48 11 19z m-45 -26 c-4 -9 -13 -16 -21 -16 -11 0 -12 5 -3 24 13 27 34 19 24
-8z m77 -1 c-4 -8 -8 -15 -10 -15 -2 0 -4 7 -4 15 0 8 4 15 10 15 5 0 7 -7 4
-15z m-574 -5 c0 -5 -5 -10 -11 -10 -5 0 -7 5 -4 10 3 6 8 10 11 10 2 0 4 -4
4 -10z m367 -16 c-3 -3 -12 -4 -19 -1 -8 3 -5 6 6 6 11 1 17 -2 13 -5z m-430
-20 c-3 -3 -12 -4 -19 -1 -8 3 -5 6 6 6 11 1 17 -2 13 -5z m546 -1 c-18 -2
-48 -2 -65 0 -18 2 -4 4 32 4 36 0 50 -2 33 -4z m175 0 c-16 -2 -40 -2 -55 0
-16 2 -3 4 27 4 30 0 43 -2 28 -4z"/>
<path d="M1475 4959 c-9 -28 1 -36 14 -10 7 12 7 22 2 26 -5 3 -13 -4 -16 -16z"/>
<path d="M1537 4933 c-4 -3 -7 -11 -7 -17 0 -6 5 -5 12 2 6 6 9 14 7 17 -3 3
-9 2 -12 -2z"/>
<path d="M1337 4911 c-3 -14 -1 -18 9 -14 16 6 18 19 5 27 -5 3 -11 -3 -14
-13z"/>
<path d="M1466 4898 c-8 -31 -7 -38 3 -38 5 0 11 8 15 18 3 9 9 23 12 30 3 6
-1 12 -9 12 -8 0 -17 -10 -21 -22z"/>
<path d="M1570 4871 c0 -5 -3 -18 -6 -28 -5 -16 -4 -16 10 1 18 23 20 36 6 36
-5 0 -10 -4 -10 -9z"/>
<path d="M1473 4844 c-10 -27 11 -35 24 -8 9 19 8 24 -3 24 -8 0 -17 -7 -21
-16z"/>
<path d="M1431 4804 c0 -11 3 -14 6 -6 3 7 2 16 -1 19 -3 4 -6 -2 -5 -13z"/>
<path d="M1461 4764 c0 -11 3 -14 6 -6 3 7 2 16 -1 19 -3 4 -6 -2 -5 -13z"/>
<path d="M1335 4750 c-3 -5 -1 -10 4 -10 6 0 11 5 11 10 0 6 -2 10 -4 10 -3 0
-8 -4 -11 -10z"/>
<path d="M620 4490 c-20 -12 -10 -19 14 -10 11 3 15 9 10 13 -6 3 -16 2 -24
-3z"/>
<path d="M659 4463 c-13 -16 -12 -17 4 -4 9 7 17 15 17 17 0 8 -8 3 -21 -13z"/>
<path d="M838 4460 c-30 -4 -36 -8 -28 -20 6 -10 10 -11 10 -2 0 15 57 16 62
1 2 -6 13 -9 23 -7 20 5 20 5 0 13 -11 5 -22 11 -25 14 -3 4 -22 4 -42 1z"/>
<path d="M519 4447 c10 -12 10 -17 2 -17 -7 0 -19 -6 -26 -14 -12 -11 -11 -17
9 -35 26 -24 46 -29 22 -5 -22 22 -20 31 10 41 l27 9 -29 19 c-24 15 -27 16
-15 2z"/>
<path d="M590 4444 c0 -8 5 -12 10 -9 6 4 8 11 5 16 -9 14 -15 11 -15 -7z"/>
<path d="M1578 4448 c-8 -7 -23 -18 -33 -24 -28 -16 -31 -50 -5 -64 11 -6 17
-16 14 -22 -5 -8 0 -9 17 -4 13 4 48 10 77 13 28 3 52 9 52 14 0 5 6 9 14 9
17 0 25 20 17 41 -9 23 -51 6 -51 -20 0 -11 -4 -23 -10 -26 -14 -8 -13 58 1
72 7 7 3 9 -14 6 -30 -6 -67 -38 -67 -58 0 -8 -4 -15 -10 -15 -18 0 -10 43 12
67 22 24 10 33 -14 11z"/>
<path d="M440 4430 c0 -5 5 -10 10 -10 6 0 10 5 10 10 0 6 -4 10 -10 10 -5 0
-10 -4 -10 -10z"/>
<path d="M600 4406 c0 -22 17 -28 24 -10 9 22 8 24 -9 24 -8 0 -15 -6 -15 -14z"/>
<path d="M690 4400 c0 -5 4 -10 9 -10 6 0 13 5 16 10 3 6 -1 10 -9 10 -9 0
-16 -4 -16 -10z"/>
<path d="M460 4368 c0 -4 9 -8 20 -8 11 0 20 4 20 9 0 6 -9 9 -20 8 -11 -1
-20 -5 -20 -9z"/>
<path d="M1220 4361 c0 -14 53 -41 80 -41 11 0 20 4 20 10 0 5 -7 7 -16 3 -10
-4 -22 0 -28 9 -14 19 -56 33 -56 19z"/>
<path d="M490 4321 c0 -6 5 -13 10 -16 6 -3 10 1 10 9 0 9 -4 16 -10 16 -5 0
-10 -4 -10 -9z"/>
<path d="M620 3760 c-11 -8 -7 -9 15 -4 37 8 45 14 19 14 -10 0 -26 -5 -34
-10z"/>
<path d="M677 3701 c-4 -17 -3 -21 5 -13 5 5 8 16 6 23 -3 8 -7 3 -11 -10z"/>
<path d="M346 3669 c-28 -22 -56 -69 -56 -91 1 -7 7 1 14 17 7 17 30 45 50 63
40 35 34 44 -8 11z"/>
<path d="M690 3655 c7 -9 15 -13 17 -11 7 7 -7 26 -19 26 -6 0 -6 -6 2 -15z"/>
<path d="M670 3624 c0 -7 16 -28 36 -48 31 -31 34 -38 23 -57 -9 -19 -9 -25 5
-35 22 -16 11 -64 -14 -64 -11 0 -22 -4 -25 -10 -3 -5 -1 -10 5 -10 6 0 8 -5
5 -11 -4 -6 -1 -9 6 -8 23 4 69 -20 67 -33 -2 -7 7 -14 20 -16 12 -2 35 -10
50 -18 25 -13 19 -14 -68 -10 -85 4 -88 4 -35 -4 33 -5 90 -12 126 -16 l66 -6
-7 43 c-8 52 -44 110 -82 133 -42 26 -87 75 -103 112 -10 24 -18 32 -29 28 -9
-3 -16 -2 -16 4 0 6 6 12 13 15 6 2 8 8 4 13 -4 5 -12 2 -18 -6 -8 -13 -10
-13 -19 0 -5 8 -10 10 -10 4z m100 -124 c7 -14 7 -20 0 -20 -5 0 -10 4 -10 10
0 5 -7 7 -15 4 -15 -6 -21 7 -8 19 11 12 22 8 33 -13z"/>
<path d="M680 3556 c0 -14 5 -28 10 -31 6 -3 10 5 10 19 0 14 -4 28 -10 31 -6
3 -10 -5 -10 -19z"/>
<path d="M570 3370 c0 -4 10 -10 23 -14 31 -8 39 -7 33 3 -7 11 -56 21 -56 11z"/>
<path d="M2428 3183 c6 -2 18 -2 25 0 6 3 1 5 -13 5 -14 0 -19 -2 -12 -5z"/>
<path d="M2788 3183 c7 -3 16 -2 19 1 4 3 -2 6 -13 5 -11 0 -14 -3 -6 -6z"/>
<path d="M1784 3143 c9 -9 141 -19 346 -27 109 -4 127 -3 75 4 -213 26 -437
38 -421 23z"/>
<path d="M1275 2830 c-119 -46 -176 -131 -183 -273 -4 -83 -3 -91 28 -153 53
-108 135 -155 275 -156 133 -1 221 36 277 117 50 74 64 206 31 300 -22 67 -93
136 -166 164 -75 28 -191 28 -262 1z m243 -39 c104 -53 148 -201 106 -353 -25
-89 -93 -149 -184 -163 -102 -15 -193 33 -237 124 -25 49 -28 67 -28 151 0 86
3 100 30 148 47 86 119 125 216 118 30 -2 74 -13 97 -25z"/>
<path d="M2518 2836 c-140 -50 -203 -142 -201 -297 1 -119 53 -212 145 -260
73 -37 217 -42 303 -9 22 8 52 56 42 66 -2 2 -30 -11 -63 -28 -124 -68 -255
-30 -320 92 -27 50 -27 238 0 292 27 55 73 95 129 114 66 22 126 14 189 -25
28 -18 52 -30 54 -28 2 2 6 17 10 33 5 29 4 30 -49 47 -64 20 -186 22 -239 3z"/>
<path d="M2995 2648 c-49 -112 -108 -243 -131 -293 -23 -49 -40 -93 -38 -97 2
-3 16 -3 30 1 23 6 32 22 67 114 l40 108 110 -3 109 -3 41 -107 42 -108 44 0
c31 0 42 4 38 13 -53 120 -200 468 -218 514 -13 35 -29 63 -35 63 -5 0 -50
-91 -99 -202z m125 -23 c22 -49 40 -93 40 -97 0 -4 -38 -8 -85 -8 -47 0 -85 3
-85 8 0 18 76 191 83 189 4 -1 26 -42 47 -92z"/>
<path d="M1840 2560 c0 -154 0 -283 0 -287 0 -5 17 -9 38 -11 l38 -3 -4 141
c-3 97 -1 140 6 140 10 0 133 -138 217 -244 28 -35 33 -37 78 -34 l49 3 -136
154 -136 155 48 50 c26 28 84 85 128 126 45 41 82 78 83 81 0 3 -14 6 -32 5
-30 -1 -50 -17 -161 -133 -71 -73 -133 -133 -138 -133 -7 0 -9 47 -7 133 l4
132 -37 2 -38 2 0 -279z"/>
<path d="M1587 1952 c-34 -37 -18 -76 45 -108 21 -11 28 -21 26 -36 -4 -31
-33 -46 -58 -30 -26 16 -30 15 -30 -3 0 -11 12 -15 49 -15 44 0 50 3 61 29 16
40 7 62 -37 86 -28 15 -38 26 -38 45 0 23 4 25 38 23 50 -3 45 21 -4 25 -24 2
-40 -3 -52 -16z"/>
<path d="M1710 1960 c0 -5 12 -10 28 -12 l27 -3 3 -92 c2 -73 6 -93 17 -93 11
0 15 20 17 93 l3 92 28 3 c56 7 24 20 -48 20 -41 0 -75 -4 -75 -8z"/>
<path d="M2077 1964 c-4 -4 -7 -44 -7 -88 1 -104 9 -116 82 -116 47 0 58 4 71
23 17 26 28 176 12 177 -5 0 -12 -37 -15 -82 -5 -77 -7 -83 -32 -98 -25 -13
-31 -13 -55 0 -26 15 -28 20 -31 95 -3 77 -10 103 -25 89z"/>
<path d="M2307 1964 c-3 -3 -4 -41 -1 -84 3 -49 1 -87 -6 -99 -9 -19 -8 -21
13 -21 23 0 24 3 19 45 -6 57 6 57 49 0 31 -40 38 -44 77 -45 38 0 42 2 42 24
0 33 25 56 59 56 22 0 32 -7 44 -32 9 -18 13 -36 11 -40 -3 -4 6 -8 20 -8 22
0 25 3 16 18 -6 9 -26 53 -44 97 -18 44 -39 80 -46 80 -6 0 -20 -20 -29 -45
-34 -88 -62 -140 -74 -140 -7 0 -27 18 -44 41 l-32 41 30 25 c35 30 36 45 7
73 -21 19 -96 29 -111 14z m94 -35 c7 -14 5 -23 -11 -39 -12 -12 -29 -20 -38
-18 -20 4 -29 53 -12 73 14 17 48 8 61 -16z m170 -62 c-5 -5 -17 -7 -26 -3
-13 5 -14 10 -4 28 11 21 12 21 25 3 9 -12 11 -22 5 -28z"/>
<path d="M2852 1905 c2 -52 0 -69 -11 -73 -8 -3 -20 3 -26 11 -34 47 -108 118
-116 110 -12 -12 1 -53 16 -53 7 0 40 -31 72 -69 32 -38 63 -70 69 -70 16 -1
18 195 3 205 -8 4 -10 -14 -7 -61z"/>
<path d="M2910 1959 c0 -4 12 -9 28 -11 l27 -3 0 -92 c0 -77 2 -93 15 -93 13
0 15 16 15 93 l0 92 35 5 c19 3 31 8 25 11 -15 10 -145 8 -145 -2z"/>
<path d="M3220 1945 c-20 -21 -22 -29 -12 -49 9 -20 7 -27 -14 -47 -24 -23
-29 -44 -18 -73 5 -12 19 -16 58 -15 47 1 49 2 18 9 -43 10 -55 22 -50 51 5
40 34 34 68 -15 24 -36 37 -46 58 -46 25 1 25 2 10 14 -10 7 -18 21 -18 30 0
9 -6 16 -13 16 -17 0 -77 85 -77 110 0 14 7 20 21 20 11 0 17 5 14 10 -10 15
-20 12 -45 -15z"/>
<path d="M1930 1940 c-12 -23 -6 -40 16 -40 10 0 14 -8 12 -22 -4 -30 -23 -33
-35 -6 -9 20 -12 18 -38 -37 -16 -33 -31 -63 -33 -67 -2 -5 3 -8 11 -8 8 0 21
18 30 40 13 34 20 40 46 40 32 0 61 -30 61 -62 0 -12 8 -18 21 -18 24 0 24 2
-26 115 -19 44 -39 81 -44 83 -5 2 -15 -6 -21 -18z"/>
<path d="M3270 1913 c0 -22 2 -25 10 -13 13 20 13 40 0 40 -5 0 -10 -12 -10
-27z"/>
<path d="M3325 1849 c-4 -6 -5 -13 -2 -16 7 -7 27 6 27 18 0 12 -17 12 -25 -2z"/>
<path d="M1350 1842 c0 -5 12 -19 26 -33 l27 -24 -17 33 c-15 29 -36 43 -36
24z"/>
<path d="M2695 1806 c-3 -9 -7 -23 -10 -31 -3 -10 2 -15 16 -15 16 0 18 5 13
28 -9 35 -12 39 -19 18z"/>
<path d="M2510 808 c-30 -4 -81 -8 -112 -9 -46 -2 -58 -5 -58 -18 0 -15 10
-16 98 -8 53 5 136 10 184 11 71 1 88 4 88 16 0 12 -15 15 -73 15 -39 0 -97
-3 -127 -7z"/>
<path d="M2468 764 c-81 -7 -155 -14 -165 -16 -37 -9 139 -20 194 -13 32 4 72
9 88 11 17 2 48 7 70 10 37 7 38 8 15 15 -31 9 -24 9 -202 -7z"/>
<path d="M2698 713 c7 -3 16 -2 19 1 4 3 -2 6 -13 5 -11 0 -14 -3 -6 -6z"/>
<path d="M1022 268 c-17 -35 -21 -147 -7 -203 7 -27 11 -53 8 -57 -2 -5 7 -8
21 -8 24 0 25 2 28 78 5 138 -22 244 -50 190z"/>
<path d="M259 113 c-24 -30 -51 -83 -42 -83 4 -1 -3 -7 -17 -15 -23 -13 -19
-14 60 -14 47 -1 80 3 74 7 -10 6 -26 42 -30 67 -4 25 -17 55 -24 55 -4 0 -13
-8 -21 -17z"/>
</g>
</svg>
